<?xml version="1.0" encoding="UTF-8"?>
<svg id="_레이어_2" data-name="레이어 2" xmlns="http://www.w3.org/2000/svg" viewBox="0 0 126.72 44.68">
  <defs>
    <style>
      .cls-1 {
        fill: #005eb8;
        stroke-width: 0px;
      }
    </style>
  </defs>
  <g id="_레이어_1-2" data-name="레이어 1">
    <g>
      <g>
        <path class="cls-1" d="M29.31,44.68v-5.76h-6.63v-1.78h15.61v1.78h-6.71v5.76h-2.27ZM24.71,35.11v-6.83h11.64v1.82h-9.37v3.22h9.44v1.78h-11.71Z"/>
        <path class="cls-1" d="M47.84,37.33c-1.3-.5-3.12-2.08-3.86-3.67-.52,1.75-2.33,3.53-3.96,4.15l-1.36-1.78c2.5-.91,4.13-3.22,4.13-5.84v-1.82h2.33v1.71c0,2.68,2,4.83,4.01,5.49l-1.3,1.76ZM41.59,44.23v-5.6h2.27v3.82h9.15v1.78h-11.42ZM52.59,32.34h2.46v1.88h-2.46v5.7h-2.27v-12.53h2.27v4.95Z"/>
        <path class="cls-1" d="M62.83,38.43l.23,1.76c-1.61.35-4.87.56-7.2.43v-11.23h6.57v1.8h-4.34v2.77h3.86v1.8h-3.86v3.04c1.18.02,3.3-.04,4.73-.39ZM62.76,35.7v-1.82h1.78v-6.17h2.13v16.17h-2.13v-8.18h-1.78ZM67.99,44.68v-17.28h2.17v17.28h-2.17Z"/>
        <path class="cls-1" d="M71.86,42.43v-1.8h15.61v1.8h-15.61ZM86,37.11c-2.37-.54-5.35-2.35-6.34-4.62-.89,2.33-3.98,4.17-6.36,4.69l-1.07-1.84c2.83-.41,6.26-2.7,6.26-5.76v-1.14h2.37v1.14c0,3.04,3.65,5.31,6.28,5.76l-1.14,1.76Z"/>
        <path class="cls-1" d="M90.48,40.47h-1.57v-11.35h2.25v9.41c2.4,0,5.06-.23,6.9-.68l.23,1.8c-2.08.56-5.76.81-7.82.81ZM101.73,33.97h2.48v1.88h-2.48v8.82h-2.27v-17.28h2.27v6.57Z"/>
      </g>
      <path class="cls-1" d="M16.07.32H5.78L0,16.64h10.29c8.19,0,9.99-3.89,11.5-8.16C23.3,4.21,24.26.32,16.07.32ZM14.47,8.48c-1.56,4.41-2.15,5.1-4.89,5.1h-1.41l3.61-10.2h1.41c2.74,0,2.84.69,1.28,5.1ZM35.52,0c-7.24,0-10.56,2.38-12.72,8.48-2.16,6.1-.53,8.48,6.71,8.48s10.56-2.38,12.72-8.48c2.16-6.1.53-8.48-6.71-8.48ZM34.92,8.48c-1.56,4.41-2.21,5.6-4.38,5.6s-1.98-1.19-.42-5.6c1.56-4.41,2.21-5.6,4.38-5.6s1.98,1.19.42,5.6ZM56.01,0c-7.24,0-10.56,2.38-12.72,8.48-2.16,6.1-.53,8.48,6.71,8.48s10.56-2.38,12.72-8.48c2.16-6.1.53-8.48-6.71-8.48ZM55.41,8.48c-1.56,4.41-2.21,5.6-4.38,5.6s-1.98-1.19-.42-5.6c1.56-4.41,2.21-5.6,4.38-5.6s1.98,1.19.42,5.6ZM80.8,11.93c2.11-5.96-10.03-4.39-8.89-7.61.26-.73,1.2-1.44,2.72-1.44,1.37,0,1.74.8,1.4,1.76l-.14.39h6.63c1.24-3.5-.85-5.03-7.02-5.03s-9.55,1.81-10.72,5.1c-2.05,5.78,9.64,4.18,8.5,7.41-.32.89-1.4,1.58-2.84,1.58-1.37,0-2.15-.5-1.65-1.9l.14-.39h-6.86l-.2.57c-1.2,3.38,1.65,4.59,7.52,4.59,6.25,0,10.19-1.56,11.42-5.03ZM91.1.32l-12.41,16.32h7.54l1.74-2.86h5.64l-.29,2.86h7.54l-.85-16.32h-8.91ZM93.9,10.58h-3.96l4.4-6.93h.08l-.51,6.93ZM120.09.32l-3.56,10.06h-.08l-1.01-10.06h-7.92l-5.78,16.32h6.63l3.57-10.08h.08l1.15,10.08h7.77L126.72.32h-6.63Z"/>
    </g>
  </g>
</svg>